<?xml version="1.0" encoding="UTF-8" standalone="no"?>
<!-- Generator: Adobe Illustrator 16.0.0, SVG Export Plug-In . SVG Version: 6.00 Build 0)  -->

<svg
   xmlns:dc="http://purl.org/dc/elements/1.1/"
   xmlns:cc="http://creativecommons.org/ns#"
   xmlns:rdf="http://www.w3.org/1999/02/22-rdf-syntax-ns#"
   xmlns:svg="http://www.w3.org/2000/svg"
   xmlns="http://www.w3.org/2000/svg"
   xmlns:sodipodi="http://sodipodi.sourceforge.net/DTD/sodipodi-0.dtd"
   xmlns:inkscape="http://www.inkscape.org/namespaces/inkscape"
   version="1.1"
   id="refrigerator"
   x="0px"
   y="0px"
   width="221px"
   height="314px"
   viewBox="0 0 221 314"
   enable-background="new 0 0 221 314"
   xml:space="preserve"
   inkscape:version="0.91 r13725"
   sodipodi:docname="refrigerator.svg"><metadata
     id="metadata39"><rdf:RDF><cc:Work
         rdf:about=""><dc:format>image/svg+xml</dc:format><dc:type
           rdf:resource="http://purl.org/dc/dcmitype/StillImage" /></cc:Work></rdf:RDF></metadata><defs
     id="defs37" /><sodipodi:namedview
     pagecolor="#ffffff"
     bordercolor="#666666"
     borderopacity="1"
     objecttolerance="10"
     gridtolerance="10"
     guidetolerance="10"
     inkscape:pageopacity="0"
     inkscape:pageshadow="2"
     inkscape:window-width="1440"
     inkscape:window-height="851"
     id="namedview35"
     showgrid="false"
     inkscape:zoom="2.2579618"
     inkscape:cx="110.5"
     inkscape:cy="157"
     inkscape:window-x="0"
     inkscape:window-y="1"
     inkscape:window-maximized="1"
     inkscape:current-layer="refrigerator" /><path
     style="fill:#bae3e0"
     inkscape:connector-curvature="0"
     id="path5"
     d="m 199.637,27.455 c 0,-4.092 -2.73,-6.818 -6.818,-6.818 l -163.637,0 c -4.091,0 -6.818,2.727 -6.818,6.818 l 0,95.455 177.273,0 0,-95.455 z" /><path
     style="fill:#89ffd8"
     inkscape:connector-curvature="0"
     id="path7"
     d="m 192.818,20.636 0,95.455 -170.454,0 0,6.818 177.273,0 0,-95.454 c 0,-4.092 -2.731,-6.819 -6.819,-6.819" /><path
     style="fill:#bae3e0"
     inkscape:connector-curvature="0"
     id="path9"
     d="m 199.637,136.545 -177.273,0 0,129.545 c 0,4.089 2.727,6.818 6.818,6.818 l 163.637,0 c 4.088,0 6.818,-2.729 6.818,-6.818 l 0,-129.545 z" /><path
     style="fill:#89ffd8"
     inkscape:connector-curvature="0"
     id="path11"
     d="m 192.818,136.545 0,122.727 c 0,4.089 -2.73,6.818 -6.818,6.818 l -163.636,0 c 0,4.089 2.727,6.818 6.818,6.818 l 163.637,0 c 4.088,0 6.818,-2.729 6.818,-6.818 l 0,-129.545 -6.819,0 z" /><path
     style="fill:none;stroke:#014463;stroke-width:5;stroke-miterlimit:10;stroke-opacity:1"
     inkscape:connector-curvature="0"
     id="path13"
     d="m 179.182,109.272 c -4.088,0 -6.818,-2.727 -6.818,-6.818 l 0,-13.636 c 0,-4.092 2.73,-6.818 6.818,-6.818 4.088,0 6.818,2.727 6.818,6.818 l 0,13.636 c 0,4.092 -2.73,6.818 -6.818,6.818"
     stroke-miterlimit="10" /><path
     style="fill:none;stroke:#014463;stroke-width:5;stroke-miterlimit:10;stroke-opacity:1"
     inkscape:connector-curvature="0"
     id="path15"
     d="m 179.182,191.091 c -4.088,0 -6.818,-2.729 -6.818,-6.818 l 0,-27.273 c 0,-4.092 2.73,-6.818 6.818,-6.818 4.088,0 6.818,2.726 6.818,6.818 l 0,27.272 c 0,4.089 -2.73,6.819 -6.818,6.819"
     stroke-miterlimit="10" /><path
     style="fill:#ecf0f9"
     inkscape:connector-curvature="0"
     id="path17"
     d="m 56.455,218.363 c 3.762,0 6.818,3.05 6.818,6.818 0,3.768 -3.056,6.819 -6.818,6.819 -3.762,0 -6.818,-3.05 -6.818,-6.818 0,-3.768 3.055,-6.819 6.818,-6.819" /><path
     style="fill:#ffffff"
     inkscape:connector-curvature="0"
     id="path19"
     d="m 56.455,95.636 c -4.092,0 -6.818,-2.727 -6.818,-6.818 l 0,-40.909 c 0,-4.092 2.727,-6.818 6.818,-6.818 4.091,0 6.818,2.727 6.818,6.818 l 0,40.909 c -0.001,4.092 -2.727,6.818 -6.818,6.818" /><path
     style="fill:#ecf0f9"
     inkscape:connector-curvature="0"
     id="path21"
     d="m 56.455,211.545 c -4.092,0 -6.818,-2.729 -6.818,-6.817 l 0,-40.909 c 0,-4.088 2.727,-6.818 6.818,-6.818 4.091,0 6.818,2.73 6.818,6.818 l 0,40.909 c -0.001,4.087 -2.727,6.817 -6.818,6.817" /><rect
     style="fill:#b0c4d8"
     id="rect23"
     height="6.8179998"
     width="136.36301"
     y="286.54501"
     x="42.818001" /><path
     style="fill:none;stroke:#014463;stroke-width:5;stroke-miterlimit:10;stroke-opacity:1"
     inkscape:connector-curvature="0"
     id="path25"
     d="M 192.818,7 29.182,7 C 17.59,7 8.728,15.862 8.728,27.455 l 0,102.273 0,136.363 c 0,11.593 8.862,20.454 20.454,20.454 l 0,13.637 c 0,4.088 2.727,6.818 6.818,6.818 l 150,0 c 4.088,0 6.818,-2.73 6.818,-6.818 l 0,-13.637 c 11.592,0 20.454,-8.861 20.454,-20.454 l 0,-136.363 0,-102.273 C 213.272,15.862 204.41,7 192.818,7"
     stroke-miterlimit="10" /><g
     id="g27"
     style="stroke:#014463;stroke-opacity:1;fill:#014463;fill-opacity:1"><path
       inkscape:connector-curvature="0"
       id="path29"
       d="m 179.182,286.545 0,6.818 -136.364,0 0,-6.818 136.364,0 m 0,-3 -136.364,0 c -1.657,0 -3,1.343 -3,3 l 0,6.818 c 0,1.657 1.343,3 3,3 l 136.363,0 c 1.657,0 3,-1.343 3,-3 l 0,-6.818 c 10e-4,-1.657 -1.342,-3 -2.999,-3 l 0,0 z"
       style="stroke:#014463;stroke-opacity:1;fill:#014463;fill-opacity:1" /></g><path
     style="fill:none;stroke:#014463;stroke-width:5;stroke-miterlimit:10;stroke-opacity:1"
     inkscape:connector-curvature="0"
     id="path31"
     d="m 199.637,266.091 c 0,4.089 -2.73,6.818 -6.818,6.818 l -6.819,0 -150,0 -6.818,0 c -4.091,0 -6.818,-2.729 -6.818,-6.818 l 0,-129.546 177.273,0 0,129.546 z"
     stroke-miterlimit="10" /><path
     style="fill:none;stroke:#014463;stroke-width:5;stroke-miterlimit:10;stroke-opacity:1"
     inkscape:connector-curvature="0"
     id="path33"
     d="m 199.637,122.909 -177.273,0 0,-95.454 c 0,-4.092 2.727,-6.818 6.818,-6.818 l 163.637,0 c 4.088,0 6.818,2.727 6.818,6.818 l 0,95.454 z"
     stroke-miterlimit="10" /></svg>